<svg width="118" height="118" viewBox="0 0 118 118" fill="none" xmlns="http://www.w3.org/2000/svg">
<defs>
  <linearGradient id="purpleGrad" x1="0" y1="0" x2="0" y2="1">
    <stop offset="0%" stop-color="#160C2A"/>
    <stop offset="100%" stop-color="#7864B4"/>
  </linearGradient>
  <linearGradient id="noteGrad" x1="0" y1="0" x2="0" y2="1">
    <stop offset="0%" stop-color="#F0EBFA"/>
    <stop offset="100%" stop-color="#B4AAC8"/>
  </linearGradient>
</defs>
<rect width="118" height="118" fill="url(#purpleGrad)"/>
<path d="M52.1751 24.5837L49.585 34.4167M60.469 13.5854C62.5055 17.1733 61.297 21.7612 57.7703 23.8327C54.2435 25.9042 49.7335 24.6749 47.6974 21.087C45.6612 17.499 46.8696 12.9111 50.3963 10.8396C53.923 8.7681 58.433 9.99742 60.469 13.5854Z" stroke="url(#noteGrad)" stroke-width="8.5" stroke-linecap="round"/>
<path d="M63.9168 108.157C59.1525 102.353 51.6251 88.5 41.7918 88.5C35.448 89.0207 32.1341 95.1921 28.7541 99.9494M28.7541 99.9494C26.8045 98.1416 26.0708 95.4453 24.6034 90.0527L16.0295 58.5447C12.5789 45.864 10.8536 39.5236 13.7823 34.5287C16.711 29.5337 23.1499 27.8348 36.0278 24.4371L46.7084 21.619M28.7541 99.9494C30.7037 101.758 33.4809 102.317 39.0355 103.436L59.3998 107.54C63.7407 108.414 63.7796 108.413 68.0595 107.284L81.9722 103.613C94.8505 100.215 101.289 98.5167 104.218 93.5219C107.147 88.5271 105.421 82.1865 101.971 69.5059L93.431 38.1226C89.98 25.4419 88.2547 19.1016 83.1822 16.2177C78.7631 13.7053 73.3066 14.6711 63.4595 17.2083" stroke="url(#noteGrad)" stroke-width="8.5"/>
</svg>
